<?xml version="1.0" encoding="UTF-8" standalone="no"?><svg xmlns="http://www.w3.org/2000/svg" xmlns:xlink="http://www.w3.org/1999/xlink" contentScriptType="application/ecmascript" contentStyleType="text/css" height="479px" preserveAspectRatio="none" style="width:615px;height:479px;" version="1.1" viewBox="0 0 615 479" width="615px" zoomAndPan="magnify"><defs><filter height="300%" id="f18yy89exjc3sf" width="300%" x="-1" y="-1"><feGaussianBlur result="blurOut" stdDeviation="2.0"/><feColorMatrix in="blurOut" result="blurOut2" type="matrix" values="0 0 0 0 0 0 0 0 0 0 0 0 0 0 0 0 0 0 .4 0"/><feOffset dx="4.0" dy="4.0" in="blurOut2" result="blurOut3"/><feBlend in="SourceGraphic" in2="blurOut3" mode="normal"/></filter></defs><g><rect fill="#FFFFFF" filter="url(#f18yy89exjc3sf)" height="30" style="stroke:#A80036;stroke-width:1.0;" width="10" x="168" y="128.1094"/><rect fill="#FFFFFF" filter="url(#f18yy89exjc3sf)" height="205.1738" style="stroke:#A80036;stroke-width:1.0;" width="10" x="168" y="187.4199"/><rect fill="#FFFFFF" filter="url(#f18yy89exjc3sf)" height="59.3105" style="stroke:#A80036;stroke-width:1.0;" width="10" x="258" y="98.7988"/><rect fill="#FFFFFF" filter="url(#f18yy89exjc3sf)" height="205.1738" style="stroke:#A80036;stroke-width:1.0;" width="10" x="258" y="187.4199"/><rect fill="#FFFFFF" filter="url(#f18yy89exjc3sf)" height="29.3105" style="stroke:#A80036;stroke-width:1.0;" width="10" x="571.5" y="216.7305"/><rect fill="#FFFFFF" filter="url(#f18yy89exjc3sf)" height="29.3105" style="stroke:#A80036;stroke-width:1.0;" width="10" x="571.5" y="304.6621"/><line style="stroke:#A80036;stroke-width:1.0;stroke-dasharray:5.0,5.0;" x1="62" x2="62" y1="67.4883" y2="410.5938"/><line style="stroke:#A80036;stroke-width:1.0;stroke-dasharray:5.0,5.0;" x1="173" x2="173" y1="67.4883" y2="410.5938"/><line style="stroke:#A80036;stroke-width:1.0;stroke-dasharray:5.0,5.0;" x1="263" x2="263" y1="67.4883" y2="410.5938"/><line style="stroke:#A80036;stroke-width:1.0;stroke-dasharray:5.0,5.0;" x1="494.5" x2="494.5" y1="67.4883" y2="410.5938"/><line style="stroke:#A80036;stroke-width:1.0;stroke-dasharray:5.0,5.0;" x1="576.5" x2="576.5" y1="67.4883" y2="410.5938"/><text fill="#000000" font-family="sans-serif" font-size="14" lengthAdjust="spacingAndGlyphs" textLength="109" x="5" y="64.5352">CloudScheduler</text><ellipse cx="62.5" cy="35" fill="#FFA500" filter="url(#f18yy89exjc3sf)" rx="12" ry="12" style="stroke:#A80036;stroke-width:2.0;"/><polygon fill="#A80036" points="58.5,23,64.5,18,62.5,23,64.5,28,58.5,23" style="stroke:#A80036;stroke-width:1.0;"/><text fill="#000000" font-family="sans-serif" font-size="14" lengthAdjust="spacingAndGlyphs" textLength="109" x="5" y="423.1289">CloudScheduler</text><ellipse cx="62.5" cy="442.082" fill="#FFA500" filter="url(#f18yy89exjc3sf)" rx="12" ry="12" style="stroke:#A80036;stroke-width:2.0;"/><polygon fill="#A80036" points="58.5,430.082,64.5,425.082,62.5,430.082,64.5,435.082,58.5,430.082" style="stroke:#A80036;stroke-width:1.0;"/><text fill="#000000" font-family="sans-serif" font-size="14" lengthAdjust="spacingAndGlyphs" textLength="80" x="130" y="64.5352">CloudTasks</text><path d="M152.5,23 L152.5,47 M152.5,35 L169.5,35 " fill="none" filter="url(#f18yy89exjc3sf)" style="stroke:#A80036;stroke-width:2.0;"/><ellipse cx="181.5" cy="35" fill="#FFA500" filter="url(#f18yy89exjc3sf)" rx="12" ry="12" style="stroke:#A80036;stroke-width:2.0;"/><text fill="#000000" font-family="sans-serif" font-size="14" lengthAdjust="spacingAndGlyphs" textLength="80" x="130" y="423.1289">CloudTasks</text><path d="M152.5,430.082 L152.5,454.082 M152.5,442.082 L169.5,442.082 " fill="none" filter="url(#f18yy89exjc3sf)" style="stroke:#A80036;stroke-width:2.0;"/><ellipse cx="181.5" cy="442.082" fill="#FFA500" filter="url(#f18yy89exjc3sf)" rx="12" ry="12" style="stroke:#A80036;stroke-width:2.0;"/><text fill="#000000" font-family="sans-serif" font-size="14" lengthAdjust="spacingAndGlyphs" textLength="68" x="226" y="64.5352">CloudRun</text><ellipse cx="263" cy="35" fill="#FFA500" filter="url(#f18yy89exjc3sf)" rx="12" ry="12" style="stroke:#A80036;stroke-width:2.0;"/><polygon fill="#A80036" points="259,23,265,18,263,23,265,28,259,23" style="stroke:#A80036;stroke-width:1.0;"/><text fill="#000000" font-family="sans-serif" font-size="14" lengthAdjust="spacingAndGlyphs" textLength="68" x="226" y="423.1289">CloudRun</text><ellipse cx="263" cy="442.082" fill="#FFA500" filter="url(#f18yy89exjc3sf)" rx="12" ry="12" style="stroke:#A80036;stroke-width:2.0;"/><polygon fill="#A80036" points="259,430.082,265,425.082,263,430.082,265,435.082,259,430.082" style="stroke:#A80036;stroke-width:1.0;"/><text fill="#000000" font-family="sans-serif" font-size="14" lengthAdjust="spacingAndGlyphs" textLength="61" x="461.5" y="64.5352">Firestore</text><path d="M477,15 C477,5 495,5 495,5 C495,5 513,5 513,15 L513,41 C513,51 495,51 495,51 C495,51 477,51 477,41 L477,15 " fill="#FFA500" filter="url(#f18yy89exjc3sf)" style="stroke:#000000;stroke-width:1.5;"/><path d="M477,15 C477,25 495,25 495,25 C495,25 513,25 513,15 " fill="none" style="stroke:#000000;stroke-width:1.5;"/><text fill="#000000" font-family="sans-serif" font-size="14" lengthAdjust="spacingAndGlyphs" textLength="61" x="461.5" y="423.1289">Firestore</text><path d="M477,436.082 C477,426.082 495,426.082 495,426.082 C495,426.082 513,426.082 513,436.082 L513,462.082 C513,472.082 495,472.082 495,472.082 C495,472.082 477,472.082 477,462.082 L477,436.082 " fill="#FFA500" filter="url(#f18yy89exjc3sf)" style="stroke:#000000;stroke-width:1.5;"/><path d="M477,436.082 C477,446.082 495,446.082 495,446.082 C495,446.082 513,446.082 513,436.082 " fill="none" style="stroke:#000000;stroke-width:1.5;"/><text fill="#000000" font-family="sans-serif" font-size="14" lengthAdjust="spacingAndGlyphs" textLength="70" x="538.5" y="64.5352">TwitterAPI</text><ellipse cx="576.5" cy="35" fill="#0000FF" filter="url(#f18yy89exjc3sf)" rx="12" ry="12" style="stroke:#A80036;stroke-width:2.0;"/><polygon fill="#A80036" points="572.5,23,578.5,18,576.5,23,578.5,28,572.5,23" style="stroke:#A80036;stroke-width:1.0;"/><text fill="#000000" font-family="sans-serif" font-size="14" lengthAdjust="spacingAndGlyphs" textLength="70" x="538.5" y="423.1289">TwitterAPI</text><ellipse cx="576.5" cy="442.082" fill="#0000FF" filter="url(#f18yy89exjc3sf)" rx="12" ry="12" style="stroke:#A80036;stroke-width:2.0;"/><polygon fill="#A80036" points="572.5,430.082,578.5,425.082,576.5,430.082,578.5,435.082,572.5,430.082" style="stroke:#A80036;stroke-width:1.0;"/><rect fill="#FFFFFF" filter="url(#f18yy89exjc3sf)" height="30" style="stroke:#A80036;stroke-width:1.0;" width="10" x="168" y="128.1094"/><rect fill="#FFFFFF" filter="url(#f18yy89exjc3sf)" height="205.1738" style="stroke:#A80036;stroke-width:1.0;" width="10" x="168" y="187.4199"/><rect fill="#FFFFFF" filter="url(#f18yy89exjc3sf)" height="59.3105" style="stroke:#A80036;stroke-width:1.0;" width="10" x="258" y="98.7988"/><rect fill="#FFFFFF" filter="url(#f18yy89exjc3sf)" height="205.1738" style="stroke:#A80036;stroke-width:1.0;" width="10" x="258" y="187.4199"/><rect fill="#FFFFFF" filter="url(#f18yy89exjc3sf)" height="29.3105" style="stroke:#A80036;stroke-width:1.0;" width="10" x="571.5" y="216.7305"/><rect fill="#FFFFFF" filter="url(#f18yy89exjc3sf)" height="29.3105" style="stroke:#A80036;stroke-width:1.0;" width="10" x="571.5" y="304.6621"/><polygon fill="#A80036" points="246,94.7988,256,98.7988,246,102.7988,250,98.7988" style="stroke:#A80036;stroke-width:1.0;"/><line style="stroke:#A80036;stroke-width:1.0;" x1="62.5" x2="252" y1="98.7988" y2="98.7988"/><text fill="#000000" font-family="sans-serif" font-size="13" lengthAdjust="spacingAndGlyphs" textLength="34" x="69.5" y="94.0566">triger</text><polygon fill="#A80036" points="189,124.1094,179,128.1094,189,132.1094,185,128.1094" style="stroke:#A80036;stroke-width:1.0;"/><line style="stroke:#A80036;stroke-width:1.0;" x1="183" x2="257" y1="128.1094" y2="128.1094"/><text fill="#000000" font-family="sans-serif" font-size="13" lengthAdjust="spacingAndGlyphs" textLength="53" x="195" y="123.3672">enqueue</text><polygon fill="#A80036" points="246,183.4199,256,187.4199,246,191.4199,250,187.4199" style="stroke:#A80036;stroke-width:1.0;"/><line style="stroke:#A80036;stroke-width:1.0;" x1="178" x2="252" y1="187.4199" y2="187.4199"/><text fill="#000000" font-family="sans-serif" font-size="13" lengthAdjust="spacingAndGlyphs" textLength="54" x="185" y="182.6777">dispatch</text><polygon fill="#A80036" points="559.5,212.7305,569.5,216.7305,559.5,220.7305,563.5,216.7305" style="stroke:#A80036;stroke-width:1.0;"/><line style="stroke:#A80036;stroke-width:1.0;" x1="268" x2="565.5" y1="216.7305" y2="216.7305"/><text fill="#000000" font-family="sans-serif" font-size="13" lengthAdjust="spacingAndGlyphs" textLength="44" x="275" y="211.9883">GET(id)</text><polygon fill="#A80036" points="279,242.041,269,246.041,279,250.041,275,246.041" style="stroke:#A80036;stroke-width:1.0;"/><line style="stroke:#A80036;stroke-width:1.0;" x1="273" x2="575.5" y1="246.041" y2="246.041"/><text fill="#000000" font-family="sans-serif" font-size="13" lengthAdjust="spacingAndGlyphs" textLength="72" x="285" y="241.2988">trendデータ</text><polygon fill="#A80036" points="483,271.3516,493,275.3516,483,279.3516,487,275.3516" style="stroke:#A80036;stroke-width:1.0;"/><line style="stroke:#A80036;stroke-width:1.0;" x1="268" x2="489" y1="275.3516" y2="275.3516"/><text fill="#000000" font-family="sans-serif" font-size="13" lengthAdjust="spacingAndGlyphs" textLength="202" x="275" y="270.6094">SET(year,month,date,hour,trend)</text><polygon fill="#A80036" points="559.5,300.6621,569.5,304.6621,559.5,308.6621,563.5,304.6621" style="stroke:#A80036;stroke-width:1.0;"/><line style="stroke:#A80036;stroke-width:1.0;" x1="268" x2="565.5" y1="304.6621" y2="304.6621"/><text fill="#000000" font-family="sans-serif" font-size="13" lengthAdjust="spacingAndGlyphs" textLength="63" x="275" y="299.9199">GET(word)</text><polygon fill="#A80036" points="279,329.9727,269,333.9727,279,337.9727,275,333.9727" style="stroke:#A80036;stroke-width:1.0;"/><line style="stroke:#A80036;stroke-width:1.0;" x1="273" x2="575.5" y1="333.9727" y2="333.9727"/><text fill="#000000" font-family="sans-serif" font-size="13" lengthAdjust="spacingAndGlyphs" textLength="134" x="285" y="329.2305">word tweet検索データ</text><polygon fill="#A80036" points="483,359.2832,493,363.2832,483,367.2832,487,363.2832" style="stroke:#A80036;stroke-width:1.0;"/><line style="stroke:#A80036;stroke-width:1.0;" x1="268" x2="489" y1="363.2832" y2="363.2832"/><text fill="#000000" font-family="sans-serif" font-size="13" lengthAdjust="spacingAndGlyphs" textLength="203" x="275" y="358.541">SET(year,month,date,hour,tweet)</text><polygon fill="#A80036" points="184,388.5938,174,392.5938,184,396.5938,180,392.5938" style="stroke:#A80036;stroke-width:1.0;"/><line style="stroke:#A80036;stroke-width:1.0;" x1="178" x2="262" y1="392.5938" y2="392.5938"/><text fill="#000000" font-family="sans-serif" font-size="13" lengthAdjust="spacingAndGlyphs" textLength="36" x="190" y="387.8516">finish</text><!--MD5=[ebac76dd6ee6cbb9d076273321f0fde4]
@startuml
control CloudScheduler #Orange
boundary CloudTasks #Orange
control CloudRun #Orange
database Firestore #Orange
control TwitterAPI #Blue
CloudRun <- CloudScheduler : triger
activate CloudRun
CloudRun -> CloudTasks : enqueue
activate CloudTasks
deactivate CloudTasks
deactivate CloudRun
CloudTasks -> CloudRun : dispatch
activate CloudTasks
activate CloudRun
CloudRun -> TwitterAPI : GET(id)
activate TwitterAPI
CloudRun <- TwitterAPI : trendデータ
deactivate TwitterAPI
CloudRun -> Firestore : SET(year,month,date,hour,trend)
CloudRun -> TwitterAPI : GET(word)
activate TwitterAPI
CloudRun <- TwitterAPI : word tweet検索データ
deactivate TwitterAPI
CloudRun -> Firestore : SET(year,month,date,hour,tweet)
CloudRun -> CloudTasks : finish
deactivate CloudRun
deactivate CloudTasks
@enduml

PlantUML version 1.2020.22(Sun Dec 06 18:36:27 JST 2020)
(GPL source distribution)
Java Runtime: Java(TM) SE Runtime Environment
JVM: Java HotSpot(TM) 64-Bit Server VM
Default Encoding: UTF-8
Language: ja
Country: JP
--></g></svg>
