<?xml version="1.0" encoding="UTF-8" standalone="no"?><svg xmlns="http://www.w3.org/2000/svg" xmlns:xlink="http://www.w3.org/1999/xlink" contentScriptType="application/ecmascript" contentStyleType="text/css" height="390px" preserveAspectRatio="none" style="width:532px;height:390px;" version="1.1" viewBox="0 0 532 390" width="532px" zoomAndPan="magnify"><defs><filter height="300%" id="fj1zwtpx6a7np" width="300%" x="-1" y="-1"><feGaussianBlur result="blurOut" stdDeviation="2.0"/><feColorMatrix in="blurOut" result="blurOut2" type="matrix" values="0 0 0 0 0 0 0 0 0 0 0 0 0 0 0 0 0 0 .4 0"/><feOffset dx="4.0" dy="4.0" in="blurOut2" result="blurOut3"/><feBlend in="SourceGraphic" in2="blurOut3" mode="normal"/></filter></defs><g><rect fill="#FFFFFF" filter="url(#fj1zwtpx6a7np)" height="87.9316" style="stroke:#A80036;stroke-width:1.0;" width="10" x="259.5" y="98.7988"/><rect fill="#FFFFFF" filter="url(#fj1zwtpx6a7np)" height="87.9316" style="stroke:#A80036;stroke-width:1.0;" width="10" x="259.5" y="216.041"/><rect fill="#FFFFFF" filter="url(#fj1zwtpx6a7np)" height="29.3105" style="stroke:#A80036;stroke-width:1.0;" width="10" x="492.5" y="128.1094"/><rect fill="#FFFFFF" filter="url(#fj1zwtpx6a7np)" height="29.3105" style="stroke:#A80036;stroke-width:1.0;" width="10" x="492.5" y="245.3516"/><line style="stroke:#A80036;stroke-width:1.0;stroke-dasharray:5.0,5.0;" x1="36" x2="36" y1="67.4883" y2="321.9727"/><line style="stroke:#A80036;stroke-width:1.0;stroke-dasharray:5.0,5.0;" x1="264.5" x2="264.5" y1="67.4883" y2="321.9727"/><line style="stroke:#A80036;stroke-width:1.0;stroke-dasharray:5.0,5.0;" x1="497" x2="497" y1="67.4883" y2="321.9727"/><text fill="#000000" font-family="sans-serif" font-size="14" lengthAdjust="spacingAndGlyphs" textLength="57" x="5" y="64.5352">BackEnd</text><ellipse cx="36.5" cy="35" fill="#90EE90" filter="url(#fj1zwtpx6a7np)" rx="12" ry="12" style="stroke:#A80036;stroke-width:2.0;"/><polygon fill="#A80036" points="32.5,23,38.5,18,36.5,23,38.5,28,32.5,23" style="stroke:#A80036;stroke-width:1.0;"/><text fill="#000000" font-family="sans-serif" font-size="14" lengthAdjust="spacingAndGlyphs" textLength="57" x="5" y="334.5078">BackEnd</text><ellipse cx="36.5" cy="353.4609" fill="#90EE90" filter="url(#fj1zwtpx6a7np)" rx="12" ry="12" style="stroke:#A80036;stroke-width:2.0;"/><polygon fill="#A80036" points="32.5,341.4609,38.5,336.4609,36.5,341.4609,38.5,346.4609,32.5,341.4609" style="stroke:#A80036;stroke-width:1.0;"/><text fill="#000000" font-family="sans-serif" font-size="14" lengthAdjust="spacingAndGlyphs" textLength="68" x="227.5" y="64.5352">CloudRun</text><ellipse cx="264.5" cy="35" fill="#FFA500" filter="url(#fj1zwtpx6a7np)" rx="12" ry="12" style="stroke:#A80036;stroke-width:2.0;"/><polygon fill="#A80036" points="260.5,23,266.5,18,264.5,23,266.5,28,260.5,23" style="stroke:#A80036;stroke-width:1.0;"/><text fill="#000000" font-family="sans-serif" font-size="14" lengthAdjust="spacingAndGlyphs" textLength="68" x="227.5" y="334.5078">CloudRun</text><ellipse cx="264.5" cy="353.4609" fill="#FFA500" filter="url(#fj1zwtpx6a7np)" rx="12" ry="12" style="stroke:#A80036;stroke-width:2.0;"/><polygon fill="#A80036" points="260.5,341.4609,266.5,336.4609,264.5,341.4609,266.5,346.4609,260.5,341.4609" style="stroke:#A80036;stroke-width:1.0;"/><text fill="#000000" font-family="sans-serif" font-size="14" lengthAdjust="spacingAndGlyphs" textLength="61" x="464" y="64.5352">Firestore</text><path d="M479.5,15 C479.5,5 497.5,5 497.5,5 C497.5,5 515.5,5 515.5,15 L515.5,41 C515.5,51 497.5,51 497.5,51 C497.5,51 479.5,51 479.5,41 L479.5,15 " fill="#FFA500" filter="url(#fj1zwtpx6a7np)" style="stroke:#000000;stroke-width:1.5;"/><path d="M479.5,15 C479.5,25 497.5,25 497.5,25 C497.5,25 515.5,25 515.5,15 " fill="none" style="stroke:#000000;stroke-width:1.5;"/><text fill="#000000" font-family="sans-serif" font-size="14" lengthAdjust="spacingAndGlyphs" textLength="61" x="464" y="334.5078">Firestore</text><path d="M479.5,347.4609 C479.5,337.4609 497.5,337.4609 497.5,337.4609 C497.5,337.4609 515.5,337.4609 515.5,347.4609 L515.5,373.4609 C515.5,383.4609 497.5,383.4609 497.5,383.4609 C497.5,383.4609 479.5,383.4609 479.5,373.4609 L479.5,347.4609 " fill="#FFA500" filter="url(#fj1zwtpx6a7np)" style="stroke:#000000;stroke-width:1.5;"/><path d="M479.5,347.4609 C479.5,357.4609 497.5,357.4609 497.5,357.4609 C497.5,357.4609 515.5,357.4609 515.5,347.4609 " fill="none" style="stroke:#000000;stroke-width:1.5;"/><rect fill="#FFFFFF" filter="url(#fj1zwtpx6a7np)" height="87.9316" style="stroke:#A80036;stroke-width:1.0;" width="10" x="259.5" y="98.7988"/><rect fill="#FFFFFF" filter="url(#fj1zwtpx6a7np)" height="87.9316" style="stroke:#A80036;stroke-width:1.0;" width="10" x="259.5" y="216.041"/><rect fill="#FFFFFF" filter="url(#fj1zwtpx6a7np)" height="29.3105" style="stroke:#A80036;stroke-width:1.0;" width="10" x="492.5" y="128.1094"/><rect fill="#FFFFFF" filter="url(#fj1zwtpx6a7np)" height="29.3105" style="stroke:#A80036;stroke-width:1.0;" width="10" x="492.5" y="245.3516"/><polygon fill="#A80036" points="247.5,94.7988,257.5,98.7988,247.5,102.7988,251.5,98.7988" style="stroke:#A80036;stroke-width:1.0;"/><line style="stroke:#A80036;stroke-width:1.0;" x1="36.5" x2="253.5" y1="98.7988" y2="98.7988"/><text fill="#000000" font-family="sans-serif" font-size="13" lengthAdjust="spacingAndGlyphs" textLength="167" x="43.5" y="94.0566">GET(year,month,date,hour)</text><polygon fill="#A80036" points="480.5,124.1094,490.5,128.1094,480.5,132.1094,484.5,128.1094" style="stroke:#A80036;stroke-width:1.0;"/><line style="stroke:#A80036;stroke-width:1.0;" x1="269.5" x2="486.5" y1="128.1094" y2="128.1094"/><text fill="#000000" font-family="sans-serif" font-size="13" lengthAdjust="spacingAndGlyphs" textLength="167" x="276.5" y="123.3672">GET(year,month,date,hour)</text><polygon fill="#A80036" points="280.5,153.4199,270.5,157.4199,280.5,161.4199,276.5,157.4199" style="stroke:#A80036;stroke-width:1.0;"/><line style="stroke:#A80036;stroke-width:1.0;" x1="274.5" x2="496.5" y1="157.4199" y2="157.4199"/><text fill="#000000" font-family="sans-serif" font-size="13" lengthAdjust="spacingAndGlyphs" textLength="121" x="286.5" y="152.6777">twitter trend データ</text><polygon fill="#A80036" points="47.5,182.7305,37.5,186.7305,47.5,190.7305,43.5,186.7305" style="stroke:#A80036;stroke-width:1.0;"/><line style="stroke:#A80036;stroke-width:1.0;" x1="41.5" x2="263.5" y1="186.7305" y2="186.7305"/><text fill="#000000" font-family="sans-serif" font-size="13" lengthAdjust="spacingAndGlyphs" textLength="121" x="53.5" y="181.9883">twitter trend データ</text><polygon fill="#A80036" points="247.5,212.041,257.5,216.041,247.5,220.041,251.5,216.041" style="stroke:#A80036;stroke-width:1.0;"/><line style="stroke:#A80036;stroke-width:1.0;" x1="36.5" x2="253.5" y1="216.041" y2="216.041"/><text fill="#000000" font-family="sans-serif" font-size="13" lengthAdjust="spacingAndGlyphs" textLength="204" x="43.5" y="211.2988">GET(year,month,date,hour,trend)</text><polygon fill="#A80036" points="480.5,241.3516,490.5,245.3516,480.5,249.3516,484.5,245.3516" style="stroke:#A80036;stroke-width:1.0;"/><line style="stroke:#A80036;stroke-width:1.0;" x1="269.5" x2="486.5" y1="245.3516" y2="245.3516"/><text fill="#000000" font-family="sans-serif" font-size="13" lengthAdjust="spacingAndGlyphs" textLength="204" x="276.5" y="240.6094">GET(year,month,date,hour,trend)</text><polygon fill="#A80036" points="280.5,270.6621,270.5,274.6621,280.5,278.6621,276.5,274.6621" style="stroke:#A80036;stroke-width:1.0;"/><line style="stroke:#A80036;stroke-width:1.0;" x1="274.5" x2="496.5" y1="274.6621" y2="274.6621"/><text fill="#000000" font-family="sans-serif" font-size="13" lengthAdjust="spacingAndGlyphs" textLength="122" x="286.5" y="269.9199">twitter tweet データ</text><polygon fill="#A80036" points="47.5,299.9727,37.5,303.9727,47.5,307.9727,43.5,303.9727" style="stroke:#A80036;stroke-width:1.0;"/><line style="stroke:#A80036;stroke-width:1.0;" x1="41.5" x2="263.5" y1="303.9727" y2="303.9727"/><text fill="#000000" font-family="sans-serif" font-size="13" lengthAdjust="spacingAndGlyphs" textLength="122" x="53.5" y="299.2305">twitter tweet データ</text><!--MD5=[e590ae05f5d99b1dfb2e76b598d7c98a]
@startuml
control BackEnd #LightGreen
control CloudRun #Orange
database Firestore #Orange
BackEnd -> CloudRun : GET(year,month,date,hour)
activate CloudRun
CloudRun -> Firestore : GET(year,month,date,hour)
activate Firestore
CloudRun <- Firestore : twitter trend データ
deactivate Firestore
BackEnd <- CloudRun : twitter trend データ
deactivate CloudRun
BackEnd -> CloudRun : GET(year,month,date,hour,trend)
activate CloudRun
CloudRun -> Firestore : GET(year,month,date,hour,trend)
activate Firestore
CloudRun <- Firestore : twitter tweet データ
deactivate Firestore
BackEnd <- CloudRun : twitter tweet データ
deactivate CloudRun
@enduml

PlantUML version 1.2020.22(Sun Dec 06 18:36:27 JST 2020)
(GPL source distribution)
Java Runtime: Java(TM) SE Runtime Environment
JVM: Java HotSpot(TM) 64-Bit Server VM
Default Encoding: UTF-8
Language: ja
Country: JP
--></g></svg>
